Coordinates
version=1
nRows=9
nColumns=24
inDegrees=yes

Units are S.I. units (second, meters, Newtons, ...)
Angles are in degrees.

endheader
time	pelvis_tilt	pelvis_list	pelvis_rotation	pelvis_tx	pelvis_ty	pelvis_tz	hip_flexion_r	hip_adduction_r	hip_rotation_r	knee_angle_r	ankle_angle_r	subtalar_angle_r	mtp_angle_r	hip_flexion_l	hip_adduction_l	hip_rotation_l	knee_angle_l	ankle_angle_l	subtalar_angle_l	mtp_angle_l	lumbar_extension	lumbar_bending	lumbar_rotation
      1.28300000	     -2.33663137	      5.42290366	     -1.65879037	      0.32977029	      0.91674314	      0.29839146	     15.97950477	     -9.79664649	     -9.62617049	    -71.10380282	     -4.76516051	     -0.48850695	      7.48748158	     11.64514134	      9.27371334	      2.04689786	    -14.36523019	      2.96636532	    -14.95013635	      0.91268635	     -6.69354857	     -8.54289840	      1.17345049
      1.28716667	     -2.35239938	      5.16910560	     -1.54592429	      0.33472291	      0.91792584	      0.29811700	     16.62870655	     -9.52891796	     -9.85125045	    -70.86713404	     -4.33861533	     -0.37691739	      7.43453191	     11.04508311	      9.03988915	      2.26718889	    -13.86590500	      2.96133556	    -14.91381572	      0.88326241	     -6.73306783	     -8.21244878	      1.01993287
      1.29133333	     -2.31500701	      4.93005298	     -1.42602358	      0.33971849	      0.91916876	      0.29781855	     17.19101109	     -9.29193229	    -10.09211858	    -70.55106122	     -3.93906041	     -0.14560718	      7.34235254	     10.34968202	      8.83007801	      2.56404598	    -13.29328003	      2.97368801	    -14.99683257	      0.82757044	     -6.82164175	     -7.91688242	      0.67237249
      1.29550000	     -2.31969081	      4.65467341	     -1.29466020	      0.34464974	      0.92032684	      0.29752722	     17.78499707	     -8.99922252	    -10.33488562	    -70.16535535	     -3.54790656	      0.03481144	      7.30377361	      9.73880311	      8.56751115	      2.79533995	    -12.78760296	      2.95477488	    -14.96469674	      0.79632314	     -6.88228975	     -7.55868945	      0.50362280
      1.29966667	     -2.25815431	      4.40014946	     -1.15853431	      0.34963012	      0.92154752	      0.29720945	     18.27867379	     -8.74973699	    -10.59948876	    -69.70913587	     -3.17301631	      0.30562857	      7.24481845	      9.01991291	      8.33319095	      3.08098265	    -12.21124136	      2.96598308	    -15.02646872	      0.74460868	     -7.00094450	     -7.24059246	      0.16221430
      1.30383333	     -2.24686964	      4.11281446	     -1.01300068	      0.35454676	      0.92267211	      0.29691338	     18.81191812	     -8.44450668	    -10.85700332	    -69.17766101	     -2.80877335	      0.53723837	      7.22055888	      8.39528656	      8.04920859	      3.30580225	    -11.70156839	      2.93810333	    -14.98681384	      0.71358926	     -7.08182208	     -6.87324909	     -0.02010579
      1.30800000	     -2.18415911	      3.83170189	     -0.85982534	      0.35948132	      0.92383995	      0.29659319	     19.26148826	     -8.15971477	    -11.13513711	    -68.57291987	     -2.45459457	      0.82681043	      7.19732947	      7.69893161	      7.77249728	      3.56023275	    -11.15803386	      2.93886290	    -14.98065640	      0.67861352	     -7.21795880	     -6.51783998	     -0.29167510
      1.31216667	     -2.10160070	      3.57732363	     -0.70415938	      0.36442993	      0.92497485	      0.29625378	     19.67693248	     -7.91685535	    -11.42401080	    -67.92484431	     -2.10235169	      1.09705180	      7.14850904	      6.96184772	      7.52458523	      3.83633192	    -10.56554441	      2.88171886	    -15.05921682	      0.60289863	     -7.35133350	     -6.18426175	     -0.69625398
      1.31633333	     -2.02558021	      3.29008847	     -0.54607403	      0.36934026	      0.92606746	      0.29592946	     20.07795159	     -7.62828812	    -11.71130639	    -67.19436044	     -1.79189537	      1.39645877	      7.12713207	      6.26474085	      7.23000071	      4.05945918	    -10.03755241	      2.91275149	    -15.02409785	      0.55736809	     -7.49540344	     -5.80834565	     -0.91346486
